<?xml version="1.0" encoding="utf-8"?>
<!-- Generator: Adobe Illustrator 28.1.0, SVG Export Plug-In . SVG Version: 6.00 Build 0)  -->
<svg version="1.1" id="Capa_1" xmlns="http://www.w3.org/2000/svg" xmlns:xlink="http://www.w3.org/1999/xlink" x="0px" y="0px"
	 viewBox="0 0 197.5 77" style="enable-background:new 0 0 197.5 77;" xml:space="preserve">
<style type="text/css">
	.st0{display:none;}
	.st1{display:inline;fill:#CFCFCC;}
	.st2{display:inline;fill:#AABCC1;}
	.st3{fill:#F8F9FC;}
	.st4{fill:url(#SVGID_1_);}
	.st5{fill:#DAE5E9;}
	.st6{fill:#442E3B;}
	.st7{fill:#091421;}
	.st8{fill:#032E3B;}
	.st9{fill:#FDF4E6;}
	.st10{fill:#FEC1AC;}
	.st11{fill:#015A72;}
	.st12{fill:#C6E7F1;}
	.st13{fill:#164C58;}
	.st14{fill:#E7B247;}
	.st15{fill:#432A09;}
	.st16{fill:#599F9A;}
	.st17{fill:#F1C564;}
	.st18{fill:#467782;}
	.st19{fill:#558288;}
	.st20{fill:#FFA300;}
	.st21{fill:#FFFFFF;stroke:#FFFFFF;stroke-miterlimit:10;}
	.st22{fill:#FFFFFF;}
	.st23{font-family:'SegoeScript';}
	.st24{font-size:14px;}
</style>
<g>
	<rect x="360.75" y="-4.5" width="3" height="0"/>
	<polygon points="363.75,-4.5 360.75,-4.5 360.75,-4.5 363.75,-4.5 363.75,-4.5 	"/>
</g>
<rect x="-3.5" width="202" height="78"/>
<g>
	<g id="Background_00000005955292050063548940000017391956065992853160_" class="st0">
		<path class="st1" d="M210.45-11c0,42,0,42,0,84c-42.14,0-42.14,0-84.27,0c0-42,0-42,0-84C168.31-11,168.31-11,210.45-11z"/>
		<path class="st2" d="M196.46,29.11c0.37,2.15,1.25,4.37,1.89,6.52c0.25,1.76,0.25,1.76,0.49,3.53c0.1,1.81-0.36,3.57-0.49,5.33
			c-1.28,4.19-2.8,8.01-5.76,11.32c-0.36,0.41-2.57,2.56-2.92,2.83c-0.19,0.15-3.31,2.1-3.54,2.21c-3.39,1.7-8.58,2.5-12.34,2.3
			c-2.91-0.16-7.61-1.8-10.2-3.2c-0.83-0.45-3.6-2.51-3.87-2.62c-0.06-0.02-0.21-0.02-0.21,0.08c-0.43-0.47-0.89-0.83-0.66-0.82
			c6.05,2.7,11.66,2.42,17.78,0.25c4.68-1.66,8.35-3.95,11.77-7.59c5.49-5.85,8.39-13.27,7.24-21.29
			C195.74,27.78,196.1,28.57,196.46,29.11z"/>
		<path class="st1" d="M159.51,57.41c-0.01-0.1,0.15-0.11,0.21-0.08c0.27,0.11,3.04,2.18,3.87,2.62c2.59,1.4,7.29,3.04,10.2,3.2
			c3.76,0.2,8.95-0.59,12.34-2.3c0.23-0.12,3.35-2.07,3.54-2.21c0.35-0.27,2.56-2.42,2.92-2.83c2.96-3.31,4.48-7.13,5.76-11.32
			c0.14-1.76,0.59-3.52,0.49-5.33c-0.25-1.76-0.25-1.76-0.49-3.53c-0.64-2.16-1.53-4.37-1.89-6.52c0.24,0.35,0.54,0.71,0.82,1.03
			c2.07,5.13,3.31,8.69,2.3,14.36c-0.25,1.4-0.69,2.11-0.82,2.54c-0.23,0.78-0.63,2.53-0.91,3.2c-0.12,0.28-0.36,0.28-0.49,0.57
			c-0.31,0.69-0.73,2-1.23,2.46c-2.71,4.9-7.68,8.64-13.04,10.21c-1.15,0.25-1.15,0.25-2.3,0.49c-6.19,0.55-9.5,0.51-15.14-2.21
			C162.94,60.46,161.52,59.6,159.51,57.41z"/>
	</g>
	<g>
		<path class="st3" d="M190.45,15.5c-0.31,1.07-0.29,2.35-0.58,3.49c-0.1,0.38-0.84,1.81-0.82,2.05c0.01,0.1,0.54,0.76,0.33,0.86
			c-2.9-6.28-8.96-11.69-15.72-13.37c-7.28-1.81-14.51,0.09-20.12,5c-7.46,6.53-10.78,16.85-6.38,26.09
			c-0.86-0.89-1.16-2.67-1.65-3.81c-0.27-1.95-0.27-1.95-0.53-3.9c-1.98,2.13-2.17,3.73-2.84,5.62c-0.02,0.06-0.11,0.04-0.16,0.04
			c-0.34-1.23-0.77-2.72-0.91-3.98c-1.05-10.18,4.51-20.44,13.13-25.8C166.86-0.09,182.04,3.49,190.45,15.5z"/>
		<linearGradient id="SVGID_1_" gradientUnits="userSpaceOnUse" x1="197.7547" y1="26.2528" x2="170.4264" y2="53.6439">
			<stop  offset="0" style="stop-color:#DEE8EA"/>
			<stop  offset="1" style="stop-color:#C0C9D0"/>
		</linearGradient>
		<path class="st4" d="M195.64,27.96c1.15,8.02-1.75,15.44-7.24,21.29c-3.42,3.64-7.09,5.93-11.77,7.59
			c-4.86-1.01-9.76-1.56-14.73-1.6c4.56-0.95,8.53-0.1,13.13-1.76c0.41-0.19-0.02-0.16-0.04-0.49c4.67-1.53,8.21-4.35,11.27-8.12
			c0.2-0.24,0.39-0.48,0.58-0.74c0.2-0.27,0.82-0.81,0.82-1.15c0-0.04,0-0.04,0-0.08c0.42-0.19,1.09-1.41,1.4-1.97
			c2.45-4.47,3.01-9.57,1.89-14.52c0.46-0.42,0.06-1.48,0.16-2.58c0.11-1.17,1-3.74,1.07-5.62
			C193.83,21.17,195.15,24.6,195.64,27.96z"/>
		<path class="st5" d="M147.16,39.61c0.52,1.09,1.12,2.06,1.81,3.04c0.25,0.35,0.65,1.3,1.07,1.39c-0.04,0.33,0.27,0.54,0.41,0.74
			c2.63,3.61,6.53,6.51,10.74,8.04c4.71,1.71,9.03,1.72,13.78,0.16c0.02,0.33,0.45,0.3,0.04,0.49c-4.6,1.67-8.57,0.82-13.13,1.76
			c4.97,0.04,9.87,0.59,14.73,1.6c-6.12,2.17-11.72,2.46-17.78-0.25c-8.01-3.58-14.51-10.57-16.87-19.03c0.05,0,0.14,0.02,0.16-0.04
			c0.67-1.89,0.85-3.49,2.84-5.62c0.27,1.95,0.27,1.95,0.53,3.9C146.01,36.94,146.31,38.72,147.16,39.61z"/>
		<path class="st3" d="M192.18,18.2c-0.07,1.88-0.96,4.45-1.07,5.62c-0.1,1.11,0.3,2.16-0.16,2.58c-0.34-1.5-0.92-3.11-1.56-4.51
			c0.21-0.1-0.32-0.76-0.33-0.86c-0.01-0.25,0.73-1.67,0.82-2.05c0.29-1.14,0.27-2.42,0.58-3.49
			C191.08,16.39,191.65,17.25,192.18,18.2z"/>
		<g>
			<g>
				<path class="st6" d="M173.66,8.52c0.21,0.24,0.32,0.56,0.49,0.82c-2.29,3.63-4.41,7.37-6.42,11.16c-2.02-2.5-2.02-2.5-4.03-5
					c-0.04-0.06-0.04-0.06-0.08-0.12c-2.03,3.55-4.15,7.07-6.09,10.66c-2.44,4.52-6.39,13.02-8.39,16.37
					c-0.05,0.09-0.13,0.15-0.16,0.25c-0.69-0.97-1.29-1.95-1.81-3.04c-4.41-9.24-1.08-19.55,6.38-26.09
					C159.16,8.61,166.38,6.71,173.66,8.52z"/>
				<path class="st7" d="M189.38,21.89c0.65,1.4,1.22,3.01,1.56,4.51c1.12,4.95,0.56,10.05-1.89,14.52
					c-0.55,0.03-0.43,1.14-0.82,0.62c-0.41-0.54-1.14-2.3-1.4-2.99c-0.9-2.41-1.58-4.93-2.47-7.34c-2.72-7.36-5.26-14.69-9.71-21.21
					c-0.16-0.23-0.34-0.43-0.49-0.66c-0.18-0.26-0.28-0.58-0.49-0.82C180.43,10.21,186.49,15.61,189.38,21.89z"/>
			</g>
			<path class="st7" d="M186.25,44.86c-3.06,3.77-6.6,6.59-11.27,8.12c-4.76,1.56-9.07,1.55-13.78-0.16
				c-4.21-1.53-8.11-4.42-10.74-8.04C168.35,44.82,168.35,44.82,186.25,44.86z"/>
			<path class="st8" d="M178.68,26.82c0.08-0.04,0.08-0.04,0.16-0.08c2.72,3.91,5.36,7.84,7.98,11.81c0.26,0.69,0.99,2.45,1.4,2.99
				c0.4,0.52,0.27-0.59,0.82-0.62c-0.31,0.56-0.97,1.78-1.4,1.97c-0.68-0.6-2.68-2.35-3.5-2.3c-0.29,0.19-0.63,0.23-0.95,0.33
				c-1.07-1.58-6.63-12.25-7.16-12.76c-0.09-0.08-0.13,0.11-0.25,0.12c0.14-0.29,0.9-2.37,1.03-2.38c0.91,1.19,0.91,1.19,1.81,2.38
				C178.72,28.24,178.68,27.03,178.68,26.82z"/>
			<path class="st9" d="M174.65,10c0.47,4.04,1.04,8.07,1.07,12.14c-0.39-0.55-0.82-1.1-1.23-1.64c-0.14-0.19-0.23-0.5-0.45-0.66
				c-1.87,4.71-3.7,9.44-5.88,14.03c-0.19-0.38-0.39-0.76-0.58-1.15c1.07-3.83,1.07-3.83,2.14-7.67c-0.99-2.28-0.99-2.28-1.98-4.55
				c2.01-3.79,4.13-7.53,6.42-11.16C174.31,9.57,174.49,9.77,174.65,10z"/>
			<path class="st9" d="M163.71,15.5c0.33,2.63,0.81,5.25,1.4,7.83c-0.01,0.14-1.04,2.08-1.32,2.17c-0.06-0.11-0.08-0.08-0.08-0.08
				c-0.37-0.68-0.67-1.39-1.07-2.05c-0.02-0.03-0.05-0.27-0.29-0.57c-1.13,1.52-2.3,3.11-3.42,4.68c-3.32,4.66-6.45,9.54-9.13,14.6
				c-0.01,0.02-0.2,0.14-0.16,0.41c-0.18,0-0.33,0.04-0.49-0.08c2.01-3.34,5.95-11.85,8.39-16.37c1.94-3.6,4.06-7.11,6.09-10.66
				C163.66,15.43,163.66,15.43,163.71,15.5z"/>
			<path class="st10" d="M167.74,20.5c0.99,2.28,0.99,2.28,1.98,4.55c-1.07,3.83-1.07,3.83-2.14,7.67c0-0.01-0.09,0.02-0.08-0.08
				c-1.32-2.33-2.44-4.77-3.7-7.14c0.28-0.09,1.31-2.04,1.32-2.17c-0.58-2.59-1.07-5.2-1.4-7.83C165.72,18,165.72,18,167.74,20.5z"
				/>
			<path class="st10" d="M186.83,38.55c-2.62-3.97-5.27-7.91-7.98-11.81c-0.03-0.04-0.06-0.13-0.08-0.16
				c-0.13-0.19-0.28-0.38-0.41-0.57c-0.89-1.27-1.73-2.59-2.63-3.86c-0.03-4.07-0.6-8.1-1.07-12.14c4.45,6.51,6.99,13.85,9.71,21.21
				C185.25,33.62,185.93,36.14,186.83,38.55z"/>
			<g>
				<path class="st11" d="M166.59,36.91c4,6.7,6.36,3.06,9.18,3.2c2.07,0.1,1.3,2.65,5.18,2.21c0.86-0.1,2.72-0.66,3.7-0.9
					c1.5,0.78,1.5,0.78,3,1.56c0,0.34-0.62,0.87-0.82,1.15c-18.39-0.04-18.39-0.04-36.79-0.08c-0.42-0.1-0.82-1.05-1.07-1.39
					c0.04-0.09,0.11-0.16,0.16-0.25c0.16,0.12,0.31,0.08,0.49,0.08c3.23,0.08,3.18-0.37,4.16-0.49c2.28-0.29,5.01,0.39,8.15-1.39
					c1.42-0.8,3.2-2.73,4.07-4.1C166.37,36.34,166.38,36.66,166.59,36.91z"/>
				<path class="st12" d="M186.83,44.12c-0.18,0.26-0.38,0.49-0.58,0.74c-17.9-0.04-17.9-0.04-35.8-0.08
					c-0.14-0.19-0.45-0.4-0.41-0.74C168.44,44.08,168.44,44.08,186.83,44.12z"/>
				<path class="st12" d="M168.4,38.55c1.09,0.56,2.62,0.86,3.74,1.48c0.48,0,1.6-1.56,4.03-0.9c1.29,0.35,1.78,3.07,5.35,2.46
					c0.37-0.06,1.34-0.55,1.69-0.66c0.32-0.09,0.66-0.14,0.95-0.33c0.82-0.05,2.82,1.69,3.5,2.3c0,0.04,0,0.04,0,0.08
					c-1.5-0.78-1.5-0.78-3-1.56c-0.98,0.24-2.85,0.81-3.7,0.9c-3.88,0.44-3.11-2.12-5.18-2.21c-2.81-0.13-5.18,3.5-9.18-3.2
					C167.25,37.69,167.45,38.06,168.4,38.55z"/>
				<path class="st12" d="M166.09,36.33c-0.01,0.06-0.05,0.12-0.08,0.16c-0.87,1.38-2.66,3.3-4.07,4.1
					c-3.13,1.78-5.87,1.1-8.15,1.39c-0.97,0.13-0.93,0.58-4.16,0.49c-0.04-0.27,0.15-0.39,0.16-0.41c1.3,0.25,3.15-0.62,4.61-0.98
					c1.26-0.32,2.07-0.33,3.95-0.98c3.12-1.08,5.72-3.33,7.16-3.86C166.3,35.97,166.05,36.33,166.09,36.33z"/>
			</g>
			<path class="st11" d="M167.49,32.64c-0.01,0.1,0.08,0.08,0.08,0.08c0.19,0.39,0.39,0.76,0.58,1.15c0.11,0.23,0.15,0.39,0.16,0.41
				c0.09,0.18,0.28,0.97,0.49,1.44c0.54,1.15,1.21,2.25,1.81,3.36c-0.1,0.34-1.89-0.68-2.22-0.53c-0.94-0.49-1.15-0.86-1.81-1.64
				c-0.21-0.25-0.21-0.57-0.58-0.41c0.03-0.05,0.07-0.11,0.08-0.16c0.16,0.02,0.69-0.02,0.66-0.12c-1.81-4.37-1.81-4.37-3.62-8.74
				c0.17-0.58,0.31-1.14,0.49-1.72c-0.06,0.54-0.06,0.68,0.08,1.19c1.02,1.97,1.64,4.21,2.72,6.15c0.28,0.51,0.51,0.47,0.58,0.57
				c0.03,0.04-0.52,0.19,0.53,0.7C168.32,33.33,166.96,32.81,167.49,32.64z"/>
			<path class="st13" d="M175.8,28.29c0.12-0.01,0.16-0.21,0.25-0.12c0.53,0.5,6.09,11.17,7.16,12.76c-0.35,0.1-1.31,0.59-1.69,0.66
				c-3.57,0.61-4.06-2.11-5.35-2.46c-2.43-0.66-3.56,0.9-4.03,0.9c-1.13-0.62-2.65-0.91-3.74-1.48c0.34-0.14,2.13,0.87,2.22,0.53
				c-0.6-1.12-1.27-2.21-1.81-3.36c-0.22-0.46-0.4-1.25-0.49-1.44c0.14,0.12,0.23,0.02,0.33-0.12c1.42-2.08,2.67-4.87,4.07-7.01
				c0.95,1.68,0.95,1.68,1.89,3.36C174.74,30.52,175.68,28.55,175.8,28.29z"/>
			<g>
				<path class="st14" d="M174.49,20.5c-0.3,0.95,0.12,2.15-0.08,3.08c-0.04,0.19-1.68,2.76-1.89,3.28c0.9,0.37,1.3,2.32,2.1,3.32
					c0.51-0.49,1.92-4.51,2.22-4.51c0.82,1.07,0.82,1.07,1.65,2.13c0.13-0.64,0.02-1.2-0.12-1.8c0.14,0.19,0.28,0.38,0.41,0.57
					c-0.12-0.01-0.08,0.12-0.08,0.25c0,0.22,0.04,1.43-0.04,1.48c-0.91-1.19-0.91-1.19-1.81-2.38c-0.13,0.01-0.89,2.09-1.03,2.38
					c-0.12,0.25-1.06,2.23-1.19,2.21c-0.95-1.68-0.95-1.68-1.89-3.36c-1.4,2.15-2.66,4.94-4.07,7.01c-0.09,0.14-0.19,0.24-0.33,0.12
					c-0.01-0.02-0.05-0.18-0.16-0.41c2.18-4.58,4.02-9.32,5.88-14.03C174.25,20,174.34,20.31,174.49,20.5z"/>
				<path class="st15" d="M178.85,26.73c-0.08,0.04-0.08,0.04-0.16,0.08c0-0.13-0.04-0.25,0.08-0.25
					C178.79,26.61,178.82,26.7,178.85,26.73z"/>
				<path class="st14" d="M175.72,22.14c0.9,1.26,1.74,2.58,2.63,3.86c0.14,0.61,0.25,1.17,0.12,1.8c-0.82-1.07-0.82-1.07-1.65-2.13
					c-0.3,0-1.71,4.02-2.22,4.51c-0.79-1.01-1.2-2.95-2.1-3.32c0.21-0.52,1.85-3.1,1.89-3.28c0.2-0.93-0.21-2.13,0.08-3.08
					C174.9,21.04,175.33,21.59,175.72,22.14z"/>
			</g>
			<path class="st16" d="M159.75,30.1c-1.85,3.62-4.11,7.11-5.35,10.99c-1.46,0.37-3.3,1.23-4.61,0.98
				c2.68-5.06,5.81-9.94,9.13-14.6C159.36,28.29,159.46,29.24,159.75,30.1z"/>
			<g>
				<path class="st17" d="M163.71,25.42c-0.1,0.13-0.04,0.19-0.08,0.33c-0.19,0.58-0.32,1.14-0.49,1.72
					c-0.09,0.29-0.23,0.6-0.33,0.9c-0.07,0.21-0.52,1.88-0.62,1.89c-0.37-0.86-0.37-0.86-0.74-1.72c-0.05,0.01-0.18,0.78-0.21,0.9
					c-0.47,0.19-0.22,1.68-1.03,1.31c-0.43-0.19,0.15-0.64,0.21-0.86c0.13-0.47,0.12-1.03,0.25-1.48c0.38-1.35,1.28-3.93,1.98-5.04
					C163.04,24.03,163.34,24.74,163.71,25.42z"/>
				<path class="st17" d="M162.64,23.37c-0.7,1.11-1.59,3.7-1.98,5.04c-0.13,0.44-0.12,1-0.25,1.48c-0.06,0.22-0.63,0.67-0.21,0.86
					c0.81,0.37,0.56-1.12,1.03-1.31c-0.2,0.81-0.42,1.61-0.74,2.38c-0.14,0.05-0.69-1.57-0.74-1.72c-0.29-0.86-0.4-1.8-0.82-2.62
					c1.12-1.57,2.29-3.16,3.42-4.68C162.58,23.1,162.62,23.34,162.64,23.37z"/>
			</g>
			<path class="st11" d="M163.79,25.5c1.27,2.36,2.38,4.8,3.7,7.14c-0.53,0.17,0.83,0.69,0.04,1.72c-1.06-0.5-0.51-0.65-0.53-0.7
				c-0.07-0.1-0.29-0.06-0.58-0.57c-1.07-1.94-1.69-4.18-2.72-6.15c-0.14-0.5-0.15-0.65-0.08-1.19c0.05-0.14-0.02-0.2,0.08-0.33
				C163.71,25.43,163.73,25.39,163.79,25.5z"/>
			<path class="st18" d="M165.52,36.25c-1.44,0.52-4.04,2.77-7.16,3.86c0.52-1.82,2.81-7.33,2.88-8.74c0.01-0.24,0.06-0.57-0.12-0.7
				c-0.24-0.01-0.3,1.14-0.62,1.15c0.32-0.77,0.54-1.57,0.74-2.38c0.03-0.12,0.16-0.89,0.21-0.9c0.37,0.86,0.37,0.86,0.74,1.72
				c0.1,0,0.55-1.68,0.62-1.89C163.2,31.15,164.26,33.76,165.52,36.25z"/>
			<path class="st19" d="M160.5,31.82c0.32-0.01,0.37-1.16,0.62-1.15c0.18,0.12,0.14,0.45,0.12,0.7c-0.07,1.4-2.36,6.92-2.88,8.74
				c-1.88,0.65-2.69,0.67-3.95,0.98c1.24-3.88,3.5-7.37,5.35-10.99C159.81,30.25,160.36,31.87,160.5,31.82z"/>
			<path class="st11" d="M166.09,36.33c-0.04,0,0.21-0.37-0.58-0.08c-1.25-2.49-2.32-5.1-2.72-7.88c0.1-0.3,0.24-0.61,0.33-0.9
				c1.81,4.37,1.81,4.37,3.62,8.74C166.78,36.31,166.25,36.35,166.09,36.33z"/>
		</g>
	</g>
</g>
<g>
	<g>
		<path class="st20" d="M2.5,31.06c22.37,0.06,44.74,0.13,67.11,0.19c6.3,0.02,12.59,0.04,18.89,0.05c3.86,0.01,3.87-5.99,0-6
			c-22.37-0.06-44.74-0.13-67.11-0.19c-6.3-0.02-12.59-0.04-18.89-0.05C-1.36,25.04-1.37,31.04,2.5,31.06L2.5,31.06z"/>
	</g>
</g>
<g>
	<path class="st21" d="M4.74,16.9c2.16-3.83,5.11-6.83,8.85-8.99c3.74-2.16,7.89-3.24,12.45-3.24c5.36,0,10.04,1.29,14.03,3.88
		c4,2.59,6.91,6.25,8.74,11h-7.69c-1.36-2.96-3.33-5.24-5.89-6.84c-2.56-1.6-5.63-2.4-9.2-2.4c-3.43,0-6.51,0.8-9.24,2.4
		c-2.73,1.6-4.87,3.87-6.42,6.81c-1.55,2.94-2.33,6.38-2.33,10.33c0,3.9,0.78,7.32,2.33,10.26c1.55,2.94,3.69,5.21,6.42,6.81
		c2.73,1.6,5.81,2.4,9.24,2.4c3.57,0,6.64-0.79,9.2-2.36c2.56-1.57,4.52-3.84,5.89-6.81h7.69c-1.83,4.7-4.75,8.33-8.74,10.89
		c-4,2.56-8.67,3.84-14.03,3.84c-4.56,0-8.71-1.07-12.45-3.21c-3.74-2.14-6.69-5.11-8.85-8.92C2.58,38.94,1.5,34.64,1.5,29.84
		C1.5,25.04,2.58,20.73,4.74,16.9z"/>
	<path class="st21" d="M64.69,5.3v31.1c0,4.37,1.07,7.62,3.21,9.73c2.14,2.12,5.11,3.17,8.92,3.17c3.76,0,6.71-1.06,8.85-3.17
		c2.14-2.11,3.21-5.36,3.21-9.73V5.3h6.42v31.03c0,4.09-0.82,7.53-2.47,10.33c-1.65,2.8-3.87,4.88-6.66,6.24
		c-2.8,1.36-5.94,2.05-9.41,2.05c-3.48,0-6.62-0.68-9.42-2.05c-2.8-1.36-5.01-3.44-6.63-6.24c-1.62-2.8-2.43-6.24-2.43-10.33V5.3
		H64.69z"/>
	<path class="st21" d="M140.5,5.3L124.49,35.9v18.55h-6.42V35.9L101.99,5.3h7.12l12.13,24.9l12.13-24.9H140.5z"/>
</g>
<text transform="matrix(1 0 0 1 118.5 73.3584)" class="st22 st23 st24">software</text>
</svg>
