<?xml version="1.0" encoding="UTF-8"?><svg id="uuid-87a2300f-c3af-492e-9fbe-d405ec38cff5" xmlns="http://www.w3.org/2000/svg" viewBox="0 0 27.1 11.8"><g id="uuid-e0952607-5640-44dd-b1cc-abcc881bc7ad"><rect x=".2" y=".2" width="26.7" height="11.4" fill="#020202" stroke="#000" stroke-miterlimit="10" stroke-width=".4"/><path d="M1.61923,5.05h11.70577" fill="none" stroke="#ffa300" stroke-miterlimit="10" stroke-width=".92079"/><g isolation="isolate"><g isolation="isolate"><g isolation="isolate"><text transform="translate(7 9.64998)" fill="#fff" font-family="Poppins-Medium, Poppins" font-size="2" font-weight="500" isolation="isolate"><tspan x="0" y="0">Software</tspan></text></g></g></g><path d="M17.7,4.55c.2-.2.4-.4.6-.6" fill="none" stroke="#000" stroke-miterlimit="10"/><path d="M17.6,4.35c.3,0,.6-.2.7-.5" fill="none" stroke="#000" stroke-miterlimit="10"/><path d="M17.7,4.55c.3-.3.7-.6,1.1-.8" fill="#000" stroke="#000" stroke-miterlimit="10"/><path d="M17.6,4.55c.5-.3.9-.6,1.3-1" fill="none" stroke="#000" stroke-miterlimit="10"/><path d="M17.7,4.45h0c0-.2.2-.4.3-.5" fill="none" stroke="#000" stroke-miterlimit="10" stroke-width=".4"/><path d="M17.8,4.55l.7-.7c.2-.2.4-.4.7-.5" fill="none" stroke="#000" stroke-miterlimit="10" stroke-width=".4"/><path d="M17.8,4.35c.4-.4,1-.8,1.5-1" fill="none" stroke="#000" stroke-miterlimit="10" stroke-width=".4"/><path d="M18.4,4.45c0-.2.2-.4.4-.5s.5,0,.7,0h.7c-.2.3-.3.6-.3.9v.4c0,.1.2.2.3.2.2,0,.3-.2.4-.4,0-.1.1-.3.2-.4s0-.3,0-.5c-.1-.2-.4-.3-.6-.3-.5,0-1,0-1.5.1-.1,0-.3.1-.4.2-.1.1-.1.3,0,.4,0,.1.2.2.3.2h.4c.3-.1.7-.3.9-.5-.3,0-.7,0-1,.3,0,0-.1.2-.2.3s0,.2.1.3c.1,0,.3,0,.5-.1s.4-.3.5-.5v-.3c0-.1-.2-.2-.3-.2s-.3,0-.4.2" fill="none" stroke="#000" stroke-miterlimit="10" stroke-width=".4"/><path d="M17.4,4.55l1.8-1.1" fill="#000" stroke="#000" stroke-miterlimit="10" stroke-width=".4"/><path d="M17.2,4.55c.4-.6,1-.9,1.7-.9" fill="none" stroke="#000" stroke-miterlimit="10" stroke-width=".4"/><path d="M18.8,4.75l-.4-1.2" fill="none" stroke="#000" stroke-miterlimit="10" stroke-width=".4"/><path d="M18.4,5.05l-.6-2" fill="none" stroke="#000" stroke-miterlimit="10" stroke-width=".4"/><path d="M19.1,4.35l.7.9c.1-.6.1-1.2,0-1.7-.2,0-.5.2-.7.4,0,0-.2.2-.1.4,0,0,.2.1.3.1s.2,0,.3-.2c0,0,.1,0,.2-.2s0-.1,0-.2-.2-.1-.3,0c-.3.1-.5.4-.4.7,0,0,.2,0,.3-.2s0-.2,0-.3h-.3s-.1,0-.1.1,0,.1.1,0" fill="none" stroke="#000" stroke-miterlimit="10" stroke-width=".4"/><g isolation="isolate"><g isolation="isolate"><g isolation="isolate"><text transform="translate(2.09999 6.95002)" fill="#fff" font-family="Poppins-Medium, Poppins" font-size="7" font-weight="500" isolation="isolate"><tspan x="0" y="0">Root</tspan></text></g></g></g></g><g id="uuid-b92d9150-2fee-4c21-96c8-4bb09b6e86fc"><path d="M18.2,4.65c.3-.2.1,0,.2,0h.1c.1,0,.2,0,.3-.2.4-.2.9-.3,1.3-.2.7.2,1.4.7,1.6,1.5s0,.8.2,1.3c.2.9.9,1.6,1.8,2,.8.4,1.8.6,2.7.7h.2" fill="#000" stroke="#fff" stroke-miterlimit="10" stroke-width=".4"/><path d="M26.3,9.65c-.5,0-.9-.1-1.4-.3s-.9-.4-1.1-.7-.4-.8-.3-1.3c.2-.6.8-1,1.2-1.5.6-.6,1-1.4,1.1-2.2s0-1.7-.3-2.4c0,.7-.5,1.3-1.1,1.8-.5.5-1.2.8-1.7,1.3-.5.5-1,1.1-1,1.8" fill="none" stroke="#fff" stroke-miterlimit="10" stroke-width=".4"/><path d="M19.7,4.05c.6-.5,1.2-.9,2-.9s1,.3,1.4.7c.4.4.6.9.8,1.3.8,1.8,1.3,3.8,1.3,5.8" fill="none" stroke="#fff" stroke-miterlimit="10" stroke-width=".4"/></g><g id="uuid-8b3dd47f-9ee9-400c-8160-b5978f5f05c1"><path d="M19.1,3.75c-.6.3-1,.8-1.2,1.5h0" fill="none" stroke="#000" stroke-miterlimit="10" stroke-width=".4"/><path d="M24.7,9.75c0,.5.3,1.1.6,1.5" fill="none" stroke="#000" stroke-miterlimit="10" stroke-width=".3"/><path d="M24.7,10.45c.2.2.3.4.4.7" fill="none" stroke="#000" stroke-miterlimit="10" stroke-width=".2"/><path d="M25.4,9.95c.5,0,1-.1,1.5-.3" fill="none" stroke="#000" stroke-miterlimit="10" stroke-width=".4"/></g></svg>