<?xml version="1.0" encoding="UTF-8"?><svg xmlns="http://www.w3.org/2000/svg" viewBox="0 0 26.79941 11.65518"><defs><style>.cls-1{fill:#020202;}.cls-1,.cls-2,.cls-3,.cls-4,.cls-5,.cls-6,.cls-7,.cls-8,.cls-9,.cls-10,.cls-11,.cls-12,.cls-13,.cls-14{stroke-miterlimit:10;}.cls-1,.cls-2,.cls-3,.cls-4,.cls-5,.cls-7,.cls-8,.cls-12,.cls-13,.cls-14{stroke:#000;}.cls-1,.cls-3,.cls-12,.cls-14{stroke-width:.36191px;}.cls-2{stroke-width:.4432px;}.cls-2,.cls-3,.cls-4,.cls-7,.cls-15,.cls-8,.cls-10,.cls-11,.cls-13{fill:none;}.cls-6{fill:#050505;opacity:0;}.cls-6,.cls-8{stroke-width:.25px;}.cls-6,.cls-9,.cls-10{stroke:#fff;}.cls-7{stroke-width:.2687px;}.cls-16,.cls-15{stroke-width:0px;}.cls-17{font-size:2px;}.cls-17,.cls-18{font-family:Poppins-Regular, Poppins;}.cls-17,.cls-18,.cls-14{fill:#fff;}.cls-9,.cls-10{stroke-width:.38401px;}.cls-18{font-size:6px;letter-spacing:.01196em;}.cls-11{stroke:#ffa300;stroke-width:.5px;}.cls-13{stroke-width:.4004px;}</style></defs><g id="Capa_3"><rect class="cls-1" x=".18096" y=".18096" width="26.4375" height="11.29327"/><path class="cls-11" d="M1.20521,5.39101l10.6445-.03993"/><text class="cls-17" transform="translate(7.0347 9.56274)"><tspan x="0" y="0">Software</tspan></text><path class="cls-15" d="M17.58201,4.30134c.24061-.17561.50623-.3169.78634-.41826"/><path class="cls-16" d="M17.71518,4.29408l-.00814-.00814"/><path class="cls-4" d="M17.56778,4.51206c.16611-.22107.3543-.42555.56086-.60938"/><path class="cls-4" d="M18.22604,3.27237l-.02165-.01099"/><path class="cls-4" d="M17.49762,4.35734c.28704-.05504.55036-.22503.71871-.46394"/><path class="cls-4" d="M17.26648,3.80424l.02172-.06516"/><path class="cls-5" d="M17.61063,4.50433c.33314-.32683.70762-.61147,1.11169-.84498"/><path class="cls-4" d="M17.53414,4.52354c.47245-.29497.90982-.64607,1.29997-1.04356"/><path class="cls-4" d="M18.02521,2.971l-.03209-.08706"/><path class="cls-3" d="M17.60327,4.43415l.07106-.10307c.09973-.14467.20121-.29127.33623-.40372"/><path class="cls-3" d="M17.66339,4.47974l.6735-.72733c.19734-.21312.41743-.43876.70456-.48254"/><path class="cls-3" d="M18.87717,6.24883h-.01086"/><path class="cls-3" d="M17.74812,4.29443c.4184-.4413.95073-.77366,1.53091-.95582"/><path class="cls-3" d="M18.16117,4.58537c.02064.00802.03043.03609.01925.05521"/><path class="cls-3" d="M18.27551,4.41379c-.0142-.23577.18525-.44131.40922-.51631s.46736-.0504.70252-.02829.48061.03947.69994-.0482c-.20738.25232-.32944.57353-.34197.8999-.00525.13677.00969.27899.07806.39757s.1996.20811.3359.19555c.19898-.01834.31731-.22467.40168-.40581.0656-.14084.1318-.28349.16084-.43611s.01745-.31877-.06451-.45076c-.12391-.19954-.37414-.27717-.6063-.31288-.49821-.07664-1.0149-.03019-1.49145.13409-.1459.05029-.29323.11507-.39496.23111s-.14538.29541-.06592.4277c.0642.10689.19433.16063.319.16318s.24586-.03841.36205-.08369c.33547-.13073.65512-.302.94979-.5089-.33823-.08108-.71505.02387-.96267.26812-.07569.07465-.14147.16503-.16108.26952s.0165.2243.1068.2804c.14294.08882.32452-.01317.4606-.11219.18176-.13227.36821-.26952.48581-.4611.04971-.08099.0866-.17763.06456-.27007-.03384-.14187-.19845-.21985-.34371-.20689s-.27469.09311-.39794.17109"/><path class="cls-14" d="M19.39145,5.70259l-.05122.11003"/><path class="cls-12" d="M17.2608,4.5307l1.75916-1.14045"/><path class="cls-3" d="M17.11554,4.55032c.35935-.56704,1.03617-.91721,1.70662-.88296"/><path class="cls-3" d="M18.68761,4.75191l-.4114-1.18037"/><path class="cls-3" d="M18.26137,4.97726l-.60409-1.97106"/><path class="cls-3" d="M18.95756,4.30441l.66086.8845c.13242-.56972.1101-1.17461-.06394-1.73302-.24825.08682-.47461.23548-.6529.4288-.09156.09927-.17411.24263-.11189.36249.05033.09696.1794.13004.2855.10401s.19453-.09708.27915-.16617c.05727-.04676.11562-.09474.15447-.15764s.0553-.1446.02349-.21134c-.05533-.11609-.21941-.12857-.34101-.08675-.29281.1007-.48356.43573-.4207.73893.09705-.03987.19803-.08254.26561-.16278s.08869-.21017.0177-.28742c-.07467-.08126-.20934-.06659-.30709-.01537-.05611.0294-.1123.07827-.11171.14162s.09755.10963.12932.05482"/><path class="cls-3" d="M26.50366,4.82495l-.03258.02172"/><text class="cls-18" transform="translate(2.19279 6.80417)"><tspan x="0" y="0">Root </tspan></text></g><g id="Capa_2"><path class="cls-9" d="M18.01056,4.64058c.33331-.17865.14771-.08998.22199-.12534.03714-.01768.07424-.03549.11132-.05331.10749-.05165.2148-.10332.32226-.1518.43987-.19848.88208-.34354,1.3481-.21474.71518.19767,1.35182.74205,1.55437,1.45586.11519.40598.08949.83922.17765,1.25192.19309.90382.92187,1.61879,1.7506,2.02793.82873.40913,1.75735.5595,2.67005.70493.08392.01337.15844.01002.24182.02638"/><path class="cls-10" d="M26.1401,9.5624c-.45628-.06624-.91566-.13323-1.35181-.28274s-.85252-.38822-1.14328-.74604-.44141-.84573-.32826-1.29269c.15827-.62517.75454-1.01607,1.21329-1.46931.59459-.58746,1.00166-1.36194,1.14833-2.18482s.03228-1.69031-.32271-2.44703c-.07017.7034-.54118,1.30582-1.07847,1.76518-.53729.45937-1.156.81836-1.67814,1.29487s-.95645,1.11629-.95813,1.82318"/><path class="cls-10" d="M19.45158,4.03782c.58366-.45705,1.23656-.93765,1.9772-.90615.52192.0222,1.00681.30715,1.3647.68768s.60385.85144.82003,1.327c.827,1.81935,1.28184,3.80691,1.3284,5.80486"/></g><g id="Capa_4"><path class="cls-6" d="M17.78793,4.88155l.28864-.77878"/><path class="cls-2" d="M18.92065,3.74005c-.57241.25252-.99609.75652-1.2436,1.47938-.02542-.02957-.04953-.08856-.07495-.11813"/><path class="cls-7" d="M24.49103,9.66721c.02854.54926.25021,1.08421.61333,1.48014"/><path class="cls-8" d="M24.49103,10.40145c.19712.17636.33898.41363.40104.67075"/><path class="cls-13" d="M25.15342,9.91293c.49266-.00131,1.00223-.11504,1.4959-.33385"/></g></svg>