<?xml version="1.0" encoding="UTF-8"?>
<svg id="Capa_1" data-name="Capa 1" xmlns="http://www.w3.org/2000/svg" version="1.1" viewBox="0 0 26.8 11.7">
  <defs>
    <style>
      .cls-1 {
        font-size: 6px;
        letter-spacing: 0em;
      }

      .cls-1, .cls-2, .cls-3 {
        isolation: isolate;
      }

      .cls-1, .cls-3 {
        font-family: Poppins-Regular, Poppins;
      }

      .cls-1, .cls-3, .cls-4 {
        fill: #fff;
      }

      .cls-5, .cls-6, .cls-7, .cls-8 {
        fill: #000;
      }

      .cls-5, .cls-9, .cls-7, .cls-10, .cls-8, .cls-11, .cls-12, .cls-13, .cls-14, .cls-15, .cls-16, .cls-4, .cls-17 {
        stroke-miterlimit: 10;
      }

      .cls-5, .cls-9, .cls-10, .cls-8, .cls-12, .cls-13, .cls-14, .cls-15, .cls-16, .cls-4 {
        stroke: #000;
      }

      .cls-6, .cls-18, .cls-19 {
        stroke-width: 0px;
      }

      .cls-9 {
        stroke-width: .3px;
      }

      .cls-9, .cls-10, .cls-18, .cls-11, .cls-12, .cls-14, .cls-15, .cls-16, .cls-17 {
        fill: none;
      }

      .cls-7, .cls-11 {
        stroke: #fff;
        stroke-width: .4px;
      }

      .cls-8, .cls-12, .cls-13, .cls-4 {
        stroke-width: .4px;
      }

      .cls-19 {
        fill: #050505;
        fill-opacity: 0;
      }

      .cls-13 {
        fill: #020202;
      }

      .cls-14 {
        stroke-width: .2px;
      }

      .cls-15 {
        stroke-width: .4px;
      }

      .cls-3 {
        font-size: 2px;
      }

      .cls-16 {
        stroke-width: .4px;
      }

      .cls-17 {
        stroke: #ffa300;
        stroke-width: .5px;
      }
    </style>
  </defs>
  <g id="Capa_3" data-name="Capa 3">
    <rect class="cls-13" x=".2" y="0" width="26.4" height="11.3"/>
    <path class="cls-17" d="M1.2,5.3h10.6"/>
    <g class="cls-2">
      <text class="cls-3" transform="translate(7 9.4)"><tspan x="0" y="0">Software</tspan></text>
    </g>
    <path class="cls-18" d="M17.6,4.2c.2-.2.5-.3.8-.4"/>
    <path class="cls-6" d="M17.7,4.2h0"/>
    <path class="cls-10" d="M17.6,4.4c.2-.2.4-.4.6-.6"/>
    <path class="cls-10" d="M18.2,3.1h0"/>
    <path class="cls-10" d="M17.5,4.2c.3,0,.6-.2.7-.5"/>
    <path class="cls-10" d="M17.3,3.7h0"/>
    <path class="cls-5" d="M17.6,4.4c.3-.3.7-.6,1.1-.8"/>
    <path class="cls-10" d="M17.5,4.4c.5-.3.9-.6,1.3-1"/>
    <path class="cls-10" d="M18,2.8h0"/>
    <path class="cls-12" d="M17.6,4.3h0c0-.2.2-.4.3-.5"/>
    <path class="cls-12" d="M17.7,4.4l.7-.7c.2-.2.4-.4.7-.5"/>
    <path class="cls-12" d="M18.9,6.1h0"/>
    <path class="cls-12" d="M17.7,4.2c.4-.4,1-.8,1.5-1"/>
    <path class="cls-12" d="M18.2,4.5s0,0,0,0"/>
    <path class="cls-12" d="M18.3,4.3c0-.2.2-.4.4-.5s.5,0,.7,0,.5,0,.7,0c-.2.3-.3.6-.3.9,0,.1,0,.3,0,.4s.2.2.3.2c.2,0,.3-.2.4-.4,0-.1.1-.3.2-.4s0-.3,0-.5c-.1-.2-.4-.3-.6-.3-.5,0-1,0-1.5.1-.1,0-.3.1-.4.2-.1.1-.1.3,0,.4,0,.1.2.2.3.2s.2,0,.4,0c.3-.1.7-.3.9-.5-.3,0-.7,0-1,.3,0,0-.1.2-.2.3s0,.2.1.3c.1,0,.3,0,.5-.1.2-.1.4-.3.5-.5,0,0,0-.2,0-.3,0-.1-.2-.2-.3-.2s-.3,0-.4.2"/>
    <path class="cls-4" d="M19.4,5.6h0"/>
    <path class="cls-8" d="M17.3,4.4l1.8-1.1"/>
    <path class="cls-12" d="M17.1,4.4c.4-.6,1-.9,1.7-.9"/>
    <path class="cls-12" d="M18.7,4.6l-.4-1.2"/>
    <path class="cls-12" d="M18.3,4.9l-.6-2"/>
    <path class="cls-12" d="M19,4.2l.7.9c.1-.6.1-1.2,0-1.7-.2,0-.5.2-.7.4,0,0-.2.2-.1.4,0,0,.2.1.3.1s.2,0,.3-.2c0,0,.1,0,.2-.2s0-.1,0-.2c0-.1-.2-.1-.3,0-.3.1-.5.4-.4.7,0,0,.2,0,.3-.2s0-.2,0-.3c0,0-.2,0-.3,0,0,0-.1,0-.1.1s0,.1.1,0"/>
    <path class="cls-12" d="M26.5,4.7h0"/>
    <g class="cls-2">
      <text class="cls-1" transform="translate(2.2 6.7)"><tspan x="0" y="0">Root</tspan></text>
    </g>
  </g>
  <g id="Capa_2" data-name="Capa 2">
    <path class="cls-7" d="M18,4.6c.3-.2.1,0,.2-.1,0,0,0,0,.1,0,.1,0,.2-.1.3-.2.4-.2.9-.3,1.3-.2.7.2,1.4.7,1.6,1.5.1.4,0,.8.2,1.3.2.9.9,1.6,1.8,2,.8.4,1.8.6,2.7.7,0,0,.2,0,.2,0"/>
    <path class="cls-11" d="M26.1,9.6c-.5,0-.9-.1-1.4-.3s-.9-.4-1.1-.7-.4-.8-.3-1.3c.2-.6.8-1,1.2-1.5.6-.6,1-1.4,1.1-2.2s0-1.7-.3-2.4c0,.7-.5,1.3-1.1,1.8-.5.5-1.2.8-1.7,1.3s-1,1.1-1,1.8"/>
    <path class="cls-11" d="M19.5,4c.6-.5,1.2-.9,2-.9.5,0,1,.3,1.4.7s.6.9.8,1.3c.8,1.8,1.3,3.8,1.3,5.8"/>
  </g>
  <g id="Capa_4" data-name="Capa 4">
    <path class="cls-19" d="M17.8,4.9l.3-.8"/>
    <path class="cls-15" d="M18.9,3.7c-.6.3-1,.8-1.2,1.5,0,0,0,0,0-.1"/>
    <path class="cls-9" d="M24.5,9.7c0,.5.3,1.1.6,1.5"/>
    <path class="cls-14" d="M24.5,10.4c.2.2.3.4.4.7"/>
    <path class="cls-16" d="M25.2,9.9c.5,0,1-.1,1.5-.3"/>
  </g>
</svg>