<?xml version="1.0" encoding="UTF-8"?>
<svg id="Capa_1" data-name="Capa 1" xmlns="http://www.w3.org/2000/svg" version="1.1" viewBox="0 0 26.8 11.7">
  <defs>
    <style>
      .cls-1, .cls-2, .cls-3, .cls-4, .cls-5, .cls-6, .cls-7, .cls-8, .cls-9, .cls-10, .cls-11, .cls-12 {
        stroke-miterlimit: 10;
      }

      .cls-1, .cls-2, .cls-3, .cls-5, .cls-6, .cls-7, .cls-8, .cls-11, .cls-12 {
        stroke: #000;
      }

      .cls-1, .cls-3, .cls-5, .cls-8 {
        stroke-width: .4px;
      }

      .cls-1, .cls-13, .cls-14 {
        fill: #fff;
      }

      .cls-15, .cls-3, .cls-7, .cls-10 {
        fill: #000;
      }

      .cls-15, .cls-16, .cls-17 {
        stroke-width: 0px;
      }

      .cls-2 {
        stroke-width: .2px;
      }

      .cls-2, .cls-4, .cls-16, .cls-6, .cls-8, .cls-9, .cls-11, .cls-12 {
        fill: none;
      }

      .cls-18, .cls-13, .cls-14 {
        isolation: isolate;
      }

      .cls-4, .cls-10 {
        stroke: #fff;
      }

      .cls-4, .cls-10, .cls-11 {
        stroke-width: .4px;
      }

      .cls-13 {
        font-size: 6.1px;
      }

      .cls-13, .cls-14 {
        font-family: Poppins-Regular, Poppins;
      }

      .cls-5 {
        fill: #020202;
      }

      .cls-17 {
        fill: #050505;
        fill-opacity: 0;
      }

      .cls-6, .cls-7 {
        stroke-width: 1px;
      }

      .cls-9 {
        stroke: #ffa300;
        stroke-width: .5px;
      }

      .cls-14 {
        font-size: 2px;
      }

      .cls-12 {
        stroke-width: .3px;
      }
    </style>
  </defs>
  <g id="Capa_3" data-name="Capa 3">
    <rect class="cls-5" x="-.1" y="0" width="26.7" height="11.4"/>
    <path class="cls-9" d="M.9,5.4h10.7"/>
    <g class="cls-18">
      <g class="cls-18">
        <text class="cls-14" transform="translate(6.8 9.6)"><tspan x="0" y="0">Software</tspan></text>
      </g>
    </g>
    <path class="cls-16" d="M17.5,4.3c.2-.2.5-.3.8-.4"/>
    <path class="cls-15" d="M17.6,4.3h0"/>
    <path class="cls-6" d="M17.5,4.5c.2-.2.4-.4.6-.6"/>
    <path class="cls-6" d="M18.1,3.2h0"/>
    <path class="cls-6" d="M17.4,4.3c.3,0,.6-.2.7-.5"/>
    <path class="cls-6" d="M17.2,3.8h0"/>
    <path class="cls-7" d="M17.5,4.5c.3-.3.7-.6,1.1-.8"/>
    <path class="cls-6" d="M17.4,4.5c.5-.3.9-.6,1.3-1"/>
    <path class="cls-6" d="M17.9,2.9h0"/>
    <path class="cls-8" d="M17.5,4.4h0c0-.2.2-.4.3-.5"/>
    <path class="cls-8" d="M17.6,4.5l.7-.7c.2-.2.4-.4.7-.5"/>
    <path class="cls-8" d="M18.8,6.3h0"/>
    <path class="cls-8" d="M17.6,4.3c.4-.4,1-.8,1.5-1"/>
    <path class="cls-8" d="M18.1,4.6h0"/>
    <path class="cls-8" d="M18.2,4.4c0-.2.2-.4.4-.5s.5,0,.7,0h.7c-.2.3-.3.6-.3.9v.4c0,.1.2.2.3.2.2,0,.3-.2.4-.4,0-.1.1-.3.2-.4s0-.3,0-.5c-.1-.2-.4-.3-.6-.3-.5,0-1,0-1.5.1-.1,0-.3.1-.4.2-.1.1-.1.3,0,.4,0,.1.2.2.3.2h.4c.3-.1.7-.3.9-.5-.3,0-.7,0-1,.3,0,0-.1.2-.2.3s0,.2.1.3c.1,0,.3,0,.5-.1s.4-.3.5-.5v-.3c0-.1-.2-.2-.3-.2s-.3,0-.4.2"/>
    <path class="cls-1" d="M19.3,5.7h0"/>
    <path class="cls-3" d="M17.2,4.5l1.8-1.1"/>
    <path class="cls-8" d="M17,4.5c.4-.6,1-.9,1.7-.9"/>
    <path class="cls-8" d="M18.6,4.7l-.4-1.2"/>
    <path class="cls-8" d="M18.2,5l-.6-2"/>
    <path class="cls-8" d="M18.9,4.3l.7.9c.1-.6.1-1.2,0-1.7-.2,0-.5.2-.7.4,0,0-.2.2-.1.4,0,0,.2.1.3.1s.2,0,.3-.2c0,0,.1,0,.2-.2s0-.1,0-.2-.2-.1-.3,0c-.3.1-.5.4-.4.7,0,0,.2,0,.3-.2s0-.2,0-.3h-.3s-.1,0-.1.1,0,.1.1,0"/>
    <path class="cls-8" d="M26.5,4.8h0"/>
    <g class="cls-18">
      <g class="cls-18">
        <text class="cls-13" transform="translate(1.9 6.9)"><tspan x="0" y="0">Root</tspan></text>
      </g>
    </g>
  </g>
  <g id="Capa_2" data-name="Capa 2">
    <path class="cls-10" d="M18,4.6c.3-.2.1,0,.2,0h.1c.1,0,.2,0,.3-.2.4-.2.9-.3,1.3-.2.7.2,1.4.7,1.6,1.5s0,.8.2,1.3c.2.9.9,1.6,1.8,2,.8.4,1.8.6,2.7.7h.2"/>
    <path class="cls-4" d="M26.1,9.6c-.5,0-.9-.1-1.4-.3s-.9-.4-1.1-.7-.4-.8-.3-1.3c.2-.6.8-1,1.2-1.5.6-.6,1-1.4,1.1-2.2s0-1.7-.3-2.4c0,.7-.5,1.3-1.1,1.8-.5.5-1.2.8-1.7,1.3-.5.5-1,1.1-1,1.8"/>
    <path class="cls-4" d="M19.5,4c.6-.5,1.2-.9,2-.9s1,.3,1.4.7c.4.4.6.9.8,1.3.8,1.8,1.3,3.8,1.3,5.8"/>
  </g>
  <g id="Capa_4" data-name="Capa 4">
    <path class="cls-17" d="M17.8,4.9l.3-.8"/>
    <path class="cls-11" d="M18.9,3.7c-.6.3-1,.8-1.2,1.5h0"/>
    <path class="cls-12" d="M24.5,9.7c0,.5.3,1.1.6,1.5"/>
    <path class="cls-2" d="M24.5,10.4c.2.2.3.4.4.7"/>
    <path class="cls-11" d="M25.2,9.9c.5,0,1-.1,1.5-.3"/>
  </g>
</svg>