<?xml version="1.0" encoding="UTF-8"?><svg id="uuid-d5646e52-a129-4718-90d7-58e1a2845d11" xmlns="http://www.w3.org/2000/svg" viewBox="0 0 30.97593 11.82785"><g id="uuid-0626a339-a6bb-4703-b629-45fe00b93a82"><rect x=".21393" y=".21393" width="30.54808" height="11.4" fill="#020202" stroke="#000" stroke-miterlimit="10" stroke-width=".42785"/><path d="M1.63316,5.06393h11.70577" fill="none" stroke="#ffa300" stroke-miterlimit="10" stroke-width=".92079"/><g isolation="isolate"><g isolation="isolate"><g isolation="isolate"><g isolation="isolate"><path d="M7.36969,9.62838c-.07471-.03223-.1333-.0791-.17578-.13867-.04297-.06055-.06396-.12988-.06396-.20996h.24365c.00537.05957.0293.10938.07129.14746.04199.03906.10107.05859.17676.05859.07861,0,.14014-.01953.18408-.05762s.06592-.08691.06592-.14648c0-.04688-.01367-.08496-.04102-.11426s-.06104-.05176-.10205-.06836c-.04053-.01562-.09668-.0332-.16895-.05176-.09082-.02344-.16406-.04785-.2207-.07324-.05664-.02441-.10498-.0625-.14502-.11426-.04004-.05273-.06006-.12207-.06006-.20801,0-.08008.02002-.15039.06006-.20996.04004-.06055.0957-.10645.16797-.13867.07178-.03125.15527-.04785.25-.04785.13428,0,.24463.03418.33105.10156.08594.06738.1333.15918.14258.27637h-.25195c-.00391-.05078-.02783-.09375-.07178-.12988s-.10205-.05371-.17383-.05371c-.06543,0-.11914.0166-.16016.0498-.0415.0332-.06201.08105-.06201.14453,0,.04199.01318.07715.03906.10449s.05908.04883.09912.06543c.03955.01562.09424.0332.16357.05176.09229.02539.16699.05078.2251.07617s.10742.06445.14795.11621c.04102.05273.06104.12305.06104.21191,0,.07031-.01904.13672-.05713.19922-.0376.06348-.09326.11328-.16553.15137-.07275.03809-.15869.05664-.25732.05664-.09326,0-.17725-.01562-.25195-.04883Z" fill="#fff" stroke-width="0"/><path d="M8.56793,9.6108c-.08398-.04785-.15039-.11426-.19824-.2002s-.07178-.18555-.07178-.29883c0-.1123.02441-.21191.07373-.29785.04932-.08691.1167-.15332.20215-.2002s.18066-.07031.28613-.07031c.10498,0,.20068.02344.28564.07031.08545.04688.15283.11328.20215.2002.04932.08594.07422.18555.07422.29785,0,.11133-.02539.21094-.07617.29785s-.11963.15332-.20703.20117c-.0874.04688-.18359.07031-.28906.07031-.104,0-.19775-.02344-.28174-.07031ZM9.01471,9.44186c.05127-.02832.09326-.07031.125-.12598.03223-.05664.04785-.12402.04785-.2041s-.01514-.14746-.0459-.20312-.07129-.09668-.12207-.125-.10498-.04199-.16406-.04199c-.05859,0-.11279.01367-.1626.04199-.05029.02832-.08984.06934-.11914.125s-.04395.12305-.04395.20312c0,.11816.03027.20996.09082.27441.06055.06543.13721.09766.229.09766.05859,0,.11377-.01465.16504-.04199Z" fill="#fff" stroke-width="0"/><path d="M10.10944,8.74752h-.20361v.91602h-.22998v-.91602h-.13037v-.18555h.13037v-.07812c0-.12695.0332-.21973.10059-.27734s.17334-.08691.31738-.08691v.19043c-.06934,0-.11816.0127-.146.03809-.02832.02637-.04199.07129-.04199.13574v.07812h.20361v.18555Z" fill="#fff" stroke-width="0"/><path d="M10.5777,8.74752v.61035c0,.04102.00977.07031.02881.08887.01953.01758.05225.02637.09912.02637h.14014v.19043h-.18018c-.10254,0-.18115-.02441-.23584-.07227s-.08203-.12598-.08203-.2334v-.61035h-.12988v-.18555h.12988v-.27441h.22998v.27441h.26807v.18555h-.26807Z" fill="#fff" stroke-width="0"/><path d="M12.5357,8.56197l-.3418,1.10156h-.24023l-.22168-.81445-.22217.81445h-.24023l-.34375-1.10156h.23193l.22998.88574.23389-.88574h.23828l.22412.88184.22754-.88184h.22412Z" fill="#fff" stroke-width="0"/><path d="M12.69879,8.81393c.0459-.08594.1084-.15234.18799-.19922.0791-.04785.16699-.07129.26318-.07129.08643,0,.16211.01758.22656.05078.06494.03418.1167.07715.15527.12695v-.15918h.22998v1.10156h-.22998v-.16406c-.03857.05176-.09131.0957-.1582.12988-.06641.03516-.14258.05176-.22803.05176-.09473,0-.18115-.02344-.25977-.07227s-.14111-.11719-.18701-.2041c-.0459-.08789-.06885-.18652-.06885-.29688,0-.11133.02295-.20898.06885-.29395ZM13.48492,8.91354c-.03174-.05566-.07275-.09863-.12305-.12793-.05078-.0293-.10547-.04395-.16406-.04395s-.11328.01465-.16406.04297-.0918.07031-.12305.12598-.04688.12109-.04688.19727c0,.0752.01562.14258.04688.19922.03125.05762.07275.10156.12402.13184.05127.0293.10547.04492.16309.04492.05859,0,.11328-.01465.16406-.04395.05029-.0293.09131-.07227.12305-.12891.03125-.05664.04688-.12305.04688-.19922s-.01562-.14258-.04688-.19824Z" fill="#fff" stroke-width="0"/><path d="M14.42291,8.59029c.05566-.03125.12109-.04688.19727-.04688v.23633h-.05859c-.08887,0-.15625.02246-.20312.06738-.0459.0459-.06836.12402-.06836.23633v.58008h-.22852v-1.10156h.22852v.15918c.0332-.05566.07715-.09961.13281-.13086Z" fill="#fff" stroke-width="0"/><path d="M15.83209,9.19772h-.8418c.00684.08789.03906.1582.09766.21191s.13086.08008.21582.08008c.12305,0,.20996-.05176.25977-.1543h.24609c-.0332.10156-.09375.18457-.18066.24902s-.19531.09668-.3252.09668c-.10547,0-.19922-.02344-.2832-.07031-.08301-.04785-.14844-.11426-.19531-.2002-.04785-.08594-.07129-.18555-.07129-.29883s.02344-.21289.06934-.29883.11035-.15234.19336-.19922c.08398-.04688.17969-.07031.28711-.07031.10449,0,.19727.02246.27832.06836.08105.04492.14453.1084.18945.19043.0459.08203.06836.17676.06836.2832,0,.04102-.00293.0791-.00781.1123ZM15.60162,9.01315c-.00098-.08398-.03125-.15137-.08984-.20117-.05859-.05078-.13086-.07617-.21777-.07617-.0791,0-.14648.02441-.20215.0752-.05566.0498-.08887.11719-.09961.20215h.60938Z" fill="#fff" stroke-width="0"/></g></g></g></g><path d="M17.71393,4.56393c.2-.2.4-.4.6-.6" fill="none" stroke="#000" stroke-miterlimit="10"/><path d="M17.61393,4.36393c.3,0,.6-.2.7-.5" fill="none" stroke="#000" stroke-miterlimit="10"/><path d="M17.71393,4.56393c.3-.3.7-.6,1.1-.8" fill="#000" stroke="#000" stroke-miterlimit="10"/><path d="M17.61393,4.56393c.5-.3.9-.6,1.3-1" fill="none" stroke="#000" stroke-miterlimit="10"/><path d="M17.71393,4.46393h0c0-.2.2-.4.3-.5" fill="none" stroke="#000" stroke-miterlimit="10" stroke-width=".4"/><path d="M17.81393,4.56393l.7-.7c.2-.2.4-.4.7-.5" fill="none" stroke="#000" stroke-miterlimit="10" stroke-width=".4"/><path d="M17.81393,4.36393c.4-.4,1-.8,1.5-1" fill="none" stroke="#000" stroke-miterlimit="10" stroke-width=".4"/><path d="M18.41393,4.46393c0-.2.2-.4.4-.5s.5,0,.7,0h.7c-.2.3-.3.6-.3.9v.4c0,.1.2.2.3.2.2,0,.3-.2.4-.4,0-.1.1-.3.2-.4s0-.3,0-.5c-.1-.2-.4-.3-.6-.3-.5,0-1,0-1.5.1-.1,0-.3.1-.4.2-.1.1-.1.3,0,.4,0,.1.2.2.3.2h.4c.3-.1.7-.3.9-.5-.3,0-.7,0-1,.3,0,0-.1.2-.2.3s0,.2.1.3c.1,0,.3,0,.5-.1s.4-.3.5-.5v-.3c0-.1-.2-.2-.3-.2s-.3,0-.4.2" fill="none" stroke="#000" stroke-miterlimit="10" stroke-width=".4"/><path d="M17.41393,4.56393l1.8-1.1" fill="#000" stroke="#000" stroke-miterlimit="10" stroke-width=".4"/><path d="M17.21393,4.56393c.4-.6,1-.9,1.7-.9" fill="none" stroke="#000" stroke-miterlimit="10" stroke-width=".4"/><path d="M18.81393,4.76393l-.4-1.2" fill="none" stroke="#000" stroke-miterlimit="10" stroke-width=".4"/><path d="M18.41393,5.06393l-.6-2" fill="none" stroke="#000" stroke-miterlimit="10" stroke-width=".4"/><path d="M19.11393,4.36393l.7.9c.1-.6.1-1.2,0-1.7-.2,0-.5.2-.7.4,0,0-.2.2-.1.4,0,0,.2.1.3.1s.2,0,.3-.2c0,0,.1,0,.2-.2s0-.1,0-.2-.2-.1-.3,0c-.3.1-.5.4-.4.7,0,0,.2,0,.3-.2s0-.2,0-.3h-.3s-.1,0-.1.1,0,.1.1,0" fill="none" stroke="#000" stroke-miterlimit="10" stroke-width=".4"/><g isolation="isolate"><g isolation="isolate"><g isolation="isolate"><g isolation="isolate"><path d="M5.16559,6.96383l-1.11963-1.94629h-.60889v1.94629h-.79834V2.0986h1.68018c.37305,0,.68945.06543.94824.19629.25928.13086.45264.30566.58105.52539.12842.21875.19238.46387.19238.73438,0,.31738-.0918.60547-.27637.86426-.18408.25977-.46777.43555-.85059.5293l1.2041,2.01562h-.95215ZM3.43707,4.38082h.88184c.29834,0,.52393-.07422.67529-.22363.15186-.14941.22754-.35059.22754-.60254s-.07471-.44922-.22412-.5918c-.14941-.1416-.37549-.21289-.67871-.21289h-.88184v1.63086Z" fill="#fff" stroke-width="0"/><path d="M7.7486,6.77828c-.29395-.16602-.5249-.39941-.69287-.7002s-.25195-.64941-.25195-1.0459c0-.39258.08643-.74023.25879-1.04297.17285-.30371.4082-.53711.70703-.7002s.63232-.24512,1.00098-.24512.70215.08203,1.00098.24512.53418.39648.70703.7002c.17285.30273.25928.65039.25928,1.04297,0,.3916-.08887.73926-.26611,1.04297-.17725.30273-.41895.53711-.72461.70312s-.64307.24902-1.01123.24902c-.36426,0-.69336-.08301-.9873-.24902ZM9.31305,6.18649c.17969-.09766.32568-.24512.4375-.44043.1123-.19629.16797-.43457.16797-.71387,0-.28027-.05371-.51758-.16064-.71094-.10742-.19336-.25-.33984-.42725-.4375s-.36865-.14648-.57373-.14648c-.20557,0-.39551.04883-.5708.14648-.1748.09766-.31396.24414-.4165.4375s-.15381.43066-.15381.71094c0,.41504.10596.73633.31836.96191.2124.22656.47949.33984.80176.33984.20508,0,.39746-.04883.57715-.14746Z" fill="#fff" stroke-width="0"/><path d="M12.21442,6.77828c-.29395-.16602-.5249-.39941-.69287-.7002s-.25195-.64941-.25195-1.0459c0-.39258.08643-.74023.25879-1.04297.17285-.30371.4082-.53711.70703-.7002s.63232-.24512,1.00098-.24512.70215.08203,1.00098.24512.53418.39648.70703.7002c.17285.30273.25977.65039.25977,1.04297,0,.3916-.08887.73926-.2666,1.04297-.17676.30273-.41895.53711-.72461.70312s-.64307.24902-1.01123.24902c-.36426,0-.69336-.08301-.9873-.24902ZM13.77887,6.18649c.17969-.09766.32568-.24512.43799-.44043.1123-.19629.16797-.43457.16797-.71387,0-.28027-.05371-.51758-.16113-.71094s-.25-.33984-.42725-.4375-.36865-.14648-.57373-.14648c-.20557,0-.39551.04883-.5708.14648-.1748.09766-.31396.24414-.4165.4375s-.15381.43066-.15381.71094c0,.41504.10596.73633.31836.96191.2124.22656.47949.33984.80176.33984.20508,0,.39746-.04883.57715-.14746Z" fill="#fff" stroke-width="0"/><path d="M16.92584,3.75777v2.13477c0,.14453.0332.24902.10156.31152.06738.06348.18262.09473.3457.09473h.49023v.66504h-.62988c-.35938,0-.63477-.08398-.82617-.25195s-.28711-.44141-.28711-.81934v-2.13477h-.45508v-.65137h.45508v-.95898h.80566v.95898h.9375v.65137h-.9375Z" fill="#fff" stroke-width="0"/></g></g></g></g></g><g id="uuid-21dcc9d9-63b7-463c-8b5d-c157e5c95447"><path d="M18.21393,4.66393c.3-.2.1,0,.2,0h.1c.1,0,.2,0,.3-.2.4-.2.9-.3,1.3-.2.7.2,1.4.7,1.6,1.5s0,.8.2,1.3c.2.9.9,1.6,1.8,2,.8.4,1.8.6,2.7.7h.2" fill="#000" stroke="#fff" stroke-miterlimit="10" stroke-width=".4"/><path d="M26.31393,9.66393c-.5,0-.9-.1-1.4-.3s-.9-.4-1.1-.7-.4-.8-.3-1.3c.2-.6.8-1,1.2-1.5.6-.6,1-1.4,1.1-2.2s0-1.7-.3-2.4c0,.7-.5,1.3-1.1,1.8-.5.5-1.2.8-1.7,1.3-.5.5-1,1.1-1,1.8" fill="none" stroke="#fff" stroke-miterlimit="10" stroke-width=".4"/><path d="M19.71393,4.06393c.6-.5,1.2-.9,2-.9s1,.3,1.4.7c.4.4.6.9.8,1.3.8,1.8,1.3,3.8,1.3,5.8" fill="none" stroke="#fff" stroke-miterlimit="10" stroke-width=".4"/></g><g id="uuid-e57b3af2-711f-454b-9a05-3201776507d4"><path d="M19.11393,3.76393c-.6.3-1,.8-1.2,1.5h0" fill="none" stroke="#000" stroke-miterlimit="10" stroke-width=".4"/><path d="M24.71393,9.76393c0,.5.3,1.1.6,1.5" fill="none" stroke="#000" stroke-miterlimit="10" stroke-width=".3"/><path d="M24.71393,10.46393c.2.2.3.4.4.7" fill="none" stroke="#000" stroke-miterlimit="10" stroke-width=".2"/><path d="M25.41393,9.96393c.5,0,1-.1,1.5-.3" fill="none" stroke="#000" stroke-miterlimit="10" stroke-width=".4"/></g></svg>