<?xml version="1.0" encoding="utf-8"?>
<!-- Generator: Adobe Illustrator 28.3.0, SVG Export Plug-In . SVG Version: 6.00 Build 0)  -->
<svg version="1.1" id="Capa_1" xmlns="http://www.w3.org/2000/svg" xmlns:xlink="http://www.w3.org/1999/xlink" x="0px" y="0px"
	 viewBox="0 0 233.7 233.9" style="enable-background:new 0 0 233.7 233.9;" xml:space="preserve">
<style type="text/css">
	.st0{fill:none;stroke:#FFA300;stroke-width:7;stroke-miterlimit:10;}
</style>
<path class="st0" d="M205.4,119.8c-0.4,0.9-4,7.4-4.4,7.5c-0.6,0.2-2.6-0.7-2.7-0.7c-0.6,0.1-8,7.5-8.1,8.1
	c-0.1,0.3,0.9,2.4,0.9,2.5c0,0.9-9.3,6.3-9.9,6.3c-0.7,0-1.1-1.9-1.6-2.1c-0.5-0.2-6.9,1.7-8.1,2.1c-2.6,0.8-3.2-0.3-3.3,3.4
	c-1.5,0.1-11.4,0.6-11.9,0.2c-0.2-0.1-0.2-2-0.5-2.3c-0.4-0.4-10.7-2.4-11.3-2.3c-1.2,0.3-2.7,1.9-3.3,1.8c-0.6-0.1-8.5-5.2-9.7-5.9
	c0.2-0.8,1.5-2,1.4-2.6c0-0.2-2-2.1-2.5-2.6c-0.8-0.9-1.6-1.7-2.5-2.5c-2.1-1.9-0.4-1.7-3.4-2.3c-1.1-0.2-1.4,0.2-1.5,0.2
	c-0.6-0.2-3.3-5.4-3.5-5.6c-0.7-0.6-8.2,1.4-8.6,1.7c-0.3,0.2-2.4,5.7-2.4,6c0,0.7,0.4,0.7,0.5,1c0.3,1.3,0.8,1.8,1.1,2.7
	c0.4,1.2,1.7,3.8,1.4,4.7c-0.4,0.9-8.1,7.6-8.9,8.6c-2.5-0.8-4.5-2.5-6.8-3.7c-0.5-0.2-0.9-0.9-1.5-0.9c-0.3,0-6.1,2.1-6.4,2.3
	c-0.8,0.7-3,8.1-3.9,8.4c-0.6,0.2-13.2,0-13.7-0.5c-0.5-0.4-1.7-8.1-1.9-8.6c-0.2-0.3-5.2-2.8-5.6-2.9c-1.5-0.1-6.3,3-8.3,3.7
	c-0.4,0.1-0.5,0.6-1,0.5c-0.7-0.2-8.9-10.1-9-10.8c0-0.1,0.6-1.5,0.7-1.7c0.4-0.9,4-5.3,4.1-5.6c0.1-0.6-1.5-5.7-1.9-6
	c-0.7-0.6-5.1-1.2-6.3-1.6c-0.5-0.2-2.6-1.1-2.7-1.5c-0.2-0.6-0.1-12.9,0.2-13.5c0.1-0.1,2.5-0.9,3-1c1.2-0.4,5.2-1.1,5.8-1.6
	c0.3-0.2,2.8-5.3,2.9-5.6c0.1-1-4.1-7-4.1-7.5c-0.1-1.3,9-10.5,9.7-10.6c0.3,0,3.8,1.9,4.4,2.3c0.7,0.4,3.3,2.2,3.8,2.3
	c0.5,0.1,5.6-1.8,5.9-2.1c1.1-0.9,2.9-9,3.9-9.4c0.6-0.2,11.7-0.1,13,0.7c1.6,1,2.2,7.8,2.6,8.6c0.2,0.3,5.9,3.3,6.3,3.3
	c1.3,0.1,5.3-2.9,6.7-3.4c0.6-0.2,1.4-0.6,1.9-0.5c0.6,0.2,9.3,8.6,9.5,9.2c0.2,1-4.5,7.8-4.6,8.2c-0.2,1,2.8,8.5,4.2,7.4
	c0.4-0.3-0.1-10.1,0.1-10.6c0.2-0.4,2.8-0.6,3.1-0.8c0.4-0.3,2.5-9.9,2.4-10.4c-0.1-1-2.3-1-2.3-2.3c0-0.6,5-9.6,5.6-9.7
	c0.1,0,0.9,0.5,1.5,0.5c0.5,0,0.5,0.2,0.6,0.2c0.6-0.1,8.2-8,8.3-8.6c0.1-0.4-0.4-0.8-0.5-0.8c-0.1-0.7-0.5-1-0.5-1
	c0-1.3,8.1-6.1,9.6-7c0.3,0.4,2,2.2,2.2,2.3c0.5,0.1,9.4-2.6,9.8-3c0.8-0.7,0.2-3.4,1.3-3.4c2,0.3,9.5-0.7,10.6-0.2
	c0.8,0.3,0,2.9,0.5,3.4c2,0,10.2,2.8,11.3,1.9c0.1-0.1,1.1-2.1,1.3-2.2c0.5-0.1,9.5,4.6,9.8,5c0.7,0.9-0.2,2.1-0.6,3.1
	c1.4,0.7,8,8,8.6,8.1c0.5,0.1,2-0.9,2.3-0.9c0.6,0,6.3,8.2,6.3,8.8c0,0.5-1.6,1.8-1.6,2.7c0,0.6,3.3,9.3,3.8,10.6
	c0.7,0.1,2-0.1,2.3,0c0.6,0.3,1.1,11,0.8,11.5c-0.2,0.4-2.4,0.4-2.7,0.9c-0.3,0.5-1.9,9.9-2.7,11.4
	C206.8,117.7,206.9,116.6,205.4,119.8L205.4,119.8z"/>
<path class="st0" d="M159.2,69.8c26.4-1.9,42.1,28.1,26.1,48.5c-12.8,16.3-38.8,14.8-49.3-3.2C124.8,95.7,137.9,71.4,159.2,69.8
	L159.2,69.8z"/>
<path class="st0" d="M159.6,80.1c18-1.6,29,19.3,17,32.7c-7.9,8.8-23,8.6-30.3-0.7C136.4,99.6,145.2,81.4,159.6,80.1z"/>
<path class="st0" d="M77.7,91.5c19.3-1.3,30.9,21.3,18.4,36.2c-8.5,10.1-24.1,10.2-32.9,0.5C50.3,113.8,60.9,92.7,77.7,91.5
	L77.7,91.5z"/>
<path class="st0" d="M118,149.9c-0.2,0.5-1.2,3.6-1.1,3.8c0,0.2,3.3,2.6,3.5,2.6c0.8,0.1,5.2-3.4,5.5-3.4c0.4-0.1,0.6,0.3,1.3,0.2
	c1,1.7,3.6,3.2,4.8,4.6c2.8,3.3-4.9,4-0.2,10.6c1.2,1,5.6-0.3,6.4,0.8c0.2,0.4,1.2,7.4,1.6,8.7c-0.7,0.1-0.3,0.3-0.7,0.7
	c-0.5-0.6-4.5,1.7-4.6,1.9c-0.6,1.6,0.2,3.1,0.9,4.2c1.1,1.9,1.1,1.5,2.7,2.7c-0.4,1.1-4.4,8.3-4.9,8.4c-0.9,0.3-4.5-1-5.2-0.7
	c-0.2,0.1-2.1,3-2.2,3.2c-0.1,1,1.7,3.9,1.6,4.4c-0.1,0.5-7.4,5.1-7.9,5.1c-0.7,0-2.7-3.2-3.4-3.4c-0.2-0.1-4.8-0.1-5,0
	c-0.7,0.2-1.9,4.6-2.5,4.8c-0.4,0.1-8.5-0.7-8.8-1.5c-0.1-0.4-0.1-2.8-0.2-3.5c-0.1-0.6-0.2-1.9-0.2-1.9c-0.1-0.2-2.9-1.7-3.1-1.7
	c-0.3,0-5,2.8-5.2,2.7c-0.4,0-6.2-5.6-6.3-6c-0.2-1.5,4.3-1.1-1.3-8.3c-5.8,1.4-3.8-5.1-6.5-7.3c0.3-1.5,6.1-3.6,6.4-4
	c0.1-0.2,0.5-4.1,0.5-4.3c-0.1-0.5-4.9-3-5-3.7c-0.2-0.7,2.3-6.1,2.5-7.4c0.8,0.1,7.5,0.1,7.9,0c0.4-0.1,2.2-2.7,2.2-2.9
	c0.1-0.8-0.6-0.8-0.7-1.3c-0.3-1.3-0.7-2.5-0.9-3.9c0-0.1,0-0.7,0.2-1.4c1-0.3,1.8-1.1,2.7-1.6c0.3-0.2,2.6-1.3,2.7-1.4
	c1.6-0.6,1.8,0.1,4.6,2.3c1.2,1,1.7,2.8,3.8,2.3c0.6-0.3,0.4-2,0.6-2.5c0.1-0.3-0.1-0.8,0-1c0.1-0.2,3.3-3.2,3.5-3.3
	C108.8,147.3,116.4,149.3,118,149.9L118,149.9z"/>
<path class="st0" d="M108.8,162.9c13-0.4,20.5,14.5,12.4,24.8c-5.8,7.4-17.7,7.8-24,0.7C88.7,178.6,96.1,163.3,108.8,162.9z"/>
</svg>
