<?xml version="1.0" encoding="utf-8"?>
<!-- Generator: Adobe Illustrator 28.3.0, SVG Export Plug-In . SVG Version: 6.00 Build 0)  -->
<svg version="1.1" id="Capa_1" xmlns="http://www.w3.org/2000/svg" xmlns:xlink="http://www.w3.org/1999/xlink" x="0px" y="0px"
	 viewBox="0 0 223.5 223.5" style="enable-background:new 0 0 223.5 223.5;" xml:space="preserve">
<style type="text/css">
	.st0{fill:#FFA300;}
	.st1{fill:none;}
	.st2{fill:#2D2B2B;}
</style>
<path class="st0" d="M164.1,156.2c5.1,8.1,10.2,16.3,14.8,24.8c-8.2-4.8-15.6-10.8-23.3-16.3c-1.4,0.2,3.1-4.1,3.4-4.1
	c0.4,0,1,1.6,1.4,0.9c3.1,2.7,3,1.6,0.2-1.5C161.7,159.1,162.7,155.4,164.1,156.2L164.1,156.2z"/>
<path class="st0" d="M163.7,69c-7.8,12-16.5,23.5-24.4,35.5c11.8,3.1,23.8,5.5,35.8,7.4c-12,2.3-24,4.5-35.8,7.4
	c0.2,0.3,0.5,0.6,0.7,1c-2.3-0.5,0.5-3-0.3-4.6l-11.3,1.3c-0.3-0.4,0.8-4.7-0.5-6.5c-1.9-9.8-12.1-15.5-21.4-13.6
	c1.4,2.9,4.2,15.1,5.9,16.5c-7.1,1.8-14.3,2.4-21.5,3.7c-1.9,0.3-7,1.7-7.4,1.7c-0.1,0-0.3-1.1-1,0c-9.3-2.5-23.7-4.8-33.6-6.7
	c12-2.5,24.2-4.3,36-7.6C76.5,92.6,67.7,81,59.8,68.8C53.9,60.1,48.9,51,43.4,42.2c8.6,5.5,16.8,11.5,25.1,17.3
	c12.1,8.6,24.2,17.4,36.3,26c2.3-12.4,4.7-24.9,7-37.3c2.2,12.4,4.4,24.9,6.5,37.3c12.4-8.3,24.4-17.3,36.6-26
	c8.4-6,16.8-11.9,25.3-17.8C174.9,51,169.5,60.1,163.7,69L163.7,69z"/>
<path class="st0" d="M139.9,120.2c1,1.9,19.3,28.1,23.8,35.1c0.4,0.7,0.4,0.8,0.4,0.9c-1.4-0.8-2.4,2.9-3.5,3.7
	c-3.4-3.8-7.4-7.4-10.9-11.2c-7.9-8.7-15.5-17.8-23.2-26.7c10.8,12.1,21.6,24.1,32.5,36.2c-0.5,0.8-0.4,1.8,0.1,2.5s1.2,0.8,1.4,0.9
	c-2.8,2.2-5.1,3.4-5.7,2.8c-0.9-0.9,2.6-5.7,2.7-5.6c0.2,0.1-2.9,5.4-2.1,6c0.1,0.1,0.2,0.1,0.2,0c0,0-0.2,0.1-0.9-0.4
	c-12-8.4-24-17-36.1-25.3l-6.8,36.7c-2.3-12.3-4.7-24.6-7-36.9C93.1,147.5,81,155.7,69,164.1c-8.2,5.7-16.2,11.6-24.4,17.1
	c4.9-8.9,10.3-17.5,15.7-26.1c7.7-12.1,15.8-23.9,24.2-35.5c0.2-0.8-1.5-0.8-2.2-1c0.7-1.1,0.9,0,1,0c0.4,0,5.5-1.4,7.4-1.7
	c7.2-1.3,14.4-2,21.5-3.7c-6.9-7.1-8.3-14.7-5.6-17.7c2.1-2.3,6.4-1.6,7.6-1.4c3.4,0,7.7,0.5,10.6,3.5c6.2,6.2,3,20,2.8,20
	c-0.1,0-0.1-1.4,0-7.2c0.7,2.4,1,3.7,0.7,3.8c-0.8,0.4-5.1-6.7-12.9-21.2c8.1,7.6,16.1,15.1,24.2,22.7
	C139.7,117.2,139.8,118.7,139.9,120.2z"/>
<path class="st1" d="M154.9,59.6c-12.2,8.7-24.1,17.6-36.6,26c-2.2-12.4-4.4-24.9-6.5-37.3c-2.3,12.4-4.7,24.9-7,37.3
	c-12.2-8.6-24.2-17.4-36.3-26C95.7,39,127.9,38.7,154.9,59.6z"/>
<path class="st0" d="M87,51.3c2.5,6.1,4.9,12.2,7.4,18.3c-0.4,0.2-0.8-0.6-1-1c-1.5-2.8-4.8-12.9-6.8-16.8L87,51.3z"/>
<path class="st0" d="M136.7,51.3l0.3,0.1c-2.6,6.1-4.6,12.5-7.7,18.4c0.2-1.7,1.3-4.4,2.1-6.2C133,59.5,134.8,55.3,136.7,51.3
	L136.7,51.3z"/>
<path class="st1" d="M82.3,118.7c0.7,0.2,2.3,0.2,2.2,1C76,131.3,68,143.1,60.3,155.2c-22-26.2-21.5-59.7-0.7-86.5
	c7.9,12.2,16.7,23.8,25.1,35.7c-11.8,3.4-24,5.2-36,7.6C58.5,114,73,116.2,82.3,118.7z"/>
<path class="st0" d="M51.8,86.6c3.8,1.9,14.2,5.6,16.6,7c0.4,0.2,1.2,0.5,1,1c-6.1-2.2-12.2-4.8-17.9-7.6L51.8,86.6z"/>
<path class="st0" d="M69.1,129.2l0.4,0.4c-5.8,2.5-11.6,5-17.5,7.4l-0.3-0.3C57.5,134.2,63.3,131.7,69.1,129.2L69.1,129.2z"/>
<path class="st0" d="M171.2,86.9l0.4,0.4c-2.4,0.9-15.9,7.1-16.8,7.2c-1.6,0.2-0.5-0.5,1.1-1.3C160.1,91.2,166.7,89,171.2,86.9
	L171.2,86.9z"/>
<path class="st0" d="M154,129l17.7,7.4l0.1,0.5c-6.1-2.1-11.9-4.9-17.8-7.3V129L154,129z"/>
<path class="st1" d="M154.7,164.3c-26.7,20.3-59.3,20.6-85.8-0.2c12-8.4,24.1-16.6,35.9-25.3c2.3,12.3,4.7,24.6,7,36.9l6.8-36.7
	C130.7,147.4,142.7,155.9,154.7,164.3z"/>
<path class="st0" d="M94.4,153.8l0.3,0.3c-2.6,6-4.9,12.3-7.7,18.2c-0.4-0.2-0.2-0.6-0.1-1C87.2,170.1,93.1,156.9,94.4,153.8
	L94.4,153.8z"/>
<path class="st0" d="M129.3,153.8c2.8,6,5.1,12.1,7.5,18.2l-0.3,0.3c-2.5-6-5-12-7.5-18L129.3,153.8L129.3,153.8z"/>
<path class="st0" d="M129,129"/>
<line class="st1" x1="108.9" y1="99.9" x2="108.2" y2="96.5"/>
<path class="st0" d="M120.2,115.4"/>
<path class="st0" d="M160.6,160"/>
<rect x="157.1" y="157.1" class="st0" width="6.3" height="6.8"/>
<path class="st2" d="M111.8,127.9L111.8,127.9c-10.1,0-18.2-7.9-18.2-17.5l0,0c0-9.7,8.2-17.5,18.2-17.5l0,0
	c10.1,0,18.2,7.9,18.2,17.5l0,0C130,120.2,121.9,127.9,111.8,127.9z"/>
</svg>
